<?xml version="1.0" standalone="no"?>
<!DOCTYPE svg PUBLIC "-//W3C//DTD SVG 20010904//EN"
 "http://www.w3.org/TR/2001/REC-SVG-20010904/DTD/svg10.dtd">
<svg version="1.0" xmlns="http://www.w3.org/2000/svg"
 width="512.000000pt" height="512.000000pt" viewBox="0 0 512.000000 512.000000"
 preserveAspectRatio="xMidYMid meet">
<metadata>
Created by potrace 1.16, written by Peter Selinger 2001-2019
</metadata>
<g transform="translate(0.000000,512.000000) scale(0.100000,-0.100000)"
fill="#000000" stroke="none">
<path d="M187 4932 c-147 -147 -188 -194 -185 -211 2 -18 40 15 213 189 175
175 206 210 185 210 -19 0 -69 -44 -213 -188z"/>
<path d="M495 5045 c-95 -88 -104 -98 -325 -325 -126 -130 -170 -182 -170
-200 0 -21 26 1 155 130 l155 155 0 -75 0 -75 -155 -155 c-117 -117 -155 -161
-155 -180 0 -21 24 -1 155 130 l155 155 0 -75 0 -75 -155 -155 c-117 -117
-155 -161 -155 -180 0 -21 24 -1 155 130 l155 155 0 -75 0 -75 -155 -155
c-117 -117 -155 -161 -155 -180 0 -21 24 -1 155 130 l155 155 0 -75 0 -75
-155 -155 c-117 -117 -155 -161 -155 -180 0 -21 24 -1 155 130 l155 155 0 -75
0 -75 -155 -155 c-117 -117 -155 -161 -155 -180 0 -21 24 -1 155 130 l155 155
0 -75 0 -75 -155 -155 c-117 -117 -155 -161 -155 -180 0 -21 24 -1 155 130
l155 155 0 -75 0 -75 -155 -155 c-117 -117 -155 -161 -155 -180 0 -21 24 -1
155 130 l155 155 0 -75 0 -75 -155 -155 c-117 -117 -155 -161 -155 -180 0 -21
24 -1 155 130 l155 155 0 -75 0 -75 -155 -155 c-117 -117 -155 -161 -155 -180
0 -21 24 -1 155 130 l155 155 0 -75 0 -75 -155 -155 c-117 -117 -155 -161
-155 -180 0 -21 24 -1 155 130 l155 155 0 -75 0 -75 -155 -155 c-117 -117
-155 -161 -155 -180 0 -21 24 -1 155 130 l155 155 0 -75 0 -75 -155 -155
c-117 -117 -155 -161 -155 -180 0 -21 24 -1 155 130 l155 155 0 -75 0 -75
-155 -155 c-117 -117 -155 -161 -155 -180 0 -21 24 -1 155 130 l155 155 0 -75
0 -75 -155 -155 c-117 -117 -155 -161 -155 -180 0 -21 24 -1 155 130 l155 155
0 -75 0 -75 -155 -155 c-117 -117 -155 -161 -155 -180 0 -21 24 -1 155 130
l155 155 0 -75 0 -75 -155 -155 c-117 -117 -155 -161 -155 -180 0 -21 24 -1
155 130 l155 155 0 -75 0 -75 -155 -155 c-117 -117 -155 -161 -155 -180 0 -21
24 -1 155 130 l155 155 0 -75 0 -75 -155 -155 c-117 -117 -155 -161 -155 -180
0 -21 24 -1 155 130 l155 155 0 -75 0 -75 -155 -155 c-117 -117 -155 -161
-155 -180 0 -21 24 -1 155 130 l155 155 0 -75 0 -75 -155 -155 c-117 -117
-155 -161 -155 -180 0 -21 24 -1 155 130 l155 155 0 -75 0 -75 -155 -155
c-117 -117 -155 -161 -155 -180 0 -21 24 -1 155 130 l155 155 0 -75 0 -75
-155 -155 c-117 -117 -155 -161 -155 -180 0 -21 24 -1 154 129 l154 154 4 -69
4 -69 -130 -133 c-112 -113 -127 -132 -106 -132 19 0 55 29 139 114 l113 114
36 -40 35 -39 -74 -75 c-65 -65 -71 -74 -49 -74 17 0 46 21 90 64 l65 63 68
-5 69 -4 -58 -59 c-54 -54 -56 -59 -33 -59 17 0 43 18 84 60 l59 60 75 0 75 0
-59 -60 c-54 -55 -57 -60 -34 -60 17 0 43 18 84 60 l59 60 75 0 75 0 -59 -60
c-54 -55 -57 -60 -34 -60 17 0 43 18 84 60 l59 60 75 0 75 0 -59 -60 c-54 -55
-57 -60 -34 -60 17 0 43 18 84 60 l59 60 75 0 75 0 -59 -60 c-54 -55 -57 -60
-34 -60 17 0 43 18 84 60 l59 60 75 0 75 0 -59 -60 c-54 -55 -57 -60 -34 -60
17 0 43 18 84 60 l59 60 75 0 75 0 -59 -60 c-54 -55 -57 -60 -34 -60 17 0 43
18 84 60 l59 60 75 0 75 0 -59 -60 c-54 -55 -57 -60 -34 -60 17 0 43 18 84 60
l59 60 75 0 75 0 -59 -60 c-54 -55 -57 -60 -34 -60 17 0 43 18 84 60 l59 60
75 0 75 0 -59 -60 c-54 -55 -57 -60 -34 -60 17 0 43 18 84 60 l59 60 75 0 75
0 -59 -60 c-54 -55 -57 -60 -34 -60 17 0 43 18 84 60 l59 60 75 0 75 0 -59
-60 c-54 -55 -57 -60 -34 -60 17 0 43 18 84 60 l59 60 75 0 75 0 -59 -60 c-54
-55 -57 -60 -34 -60 17 0 43 18 84 60 l59 60 75 0 75 0 -59 -60 c-54 -55 -57
-60 -34 -60 17 0 43 18 84 60 l59 60 75 0 75 0 -59 -60 c-54 -55 -57 -60 -34
-60 17 0 43 18 84 60 l59 60 75 0 75 0 -59 -60 c-54 -55 -57 -60 -34 -60 17 0
43 18 84 60 l59 60 75 0 75 0 -59 -60 c-54 -55 -57 -60 -34 -60 17 0 43 18 84
60 l59 60 75 0 75 0 -59 -60 c-54 -55 -57 -60 -34 -60 17 0 44 20 89 65 35 36
69 65 75 65 20 0 95 71 115 109 10 20 230 247 489 506 370 369 471 475 471
495 0 20 -87 -62 -470 -445 l-470 -470 0 57 c0 57 1 58 36 73 59 25 195 118
263 181 88 81 173 198 231 319 48 97 54 105 230 280 137 137 180 186 180 205
0 21 -28 -3 -174 -149 l-174 -174 14 59 c7 32 14 72 14 88 0 25 27 57 160 191
119 120 160 167 160 185 0 21 -26 -1 -155 -130 l-155 -155 0 75 0 75 155 155
c117 117 155 161 155 180 0 21 -25 0 -159 -134 l-159 -159 -11 52 c-6 29 -11
57 -11 64 0 7 77 89 170 182 129 129 170 176 170 195 0 21 -29 -4 -178 -153
l-178 -177 -19 55 -19 56 197 197 c150 150 197 203 197 222 0 21 -35 -10 -205
-180 -112 -112 -206 -202 -208 -200 -2 3 -14 24 -27 48 l-24 43 232 232 c178
178 232 238 232 257 0 20 -43 -18 -243 -218 l-243 -243 -31 44 -31 44 274 274
c213 213 274 279 274 299 0 20 -50 -25 -285 -260 l-285 -285 -37 38 -38 37
323 323 c250 250 322 328 322 347 0 20 -61 -36 -337 -312 l-338 -337 -40 34
-40 35 378 377 c294 295 377 384 377 403 0 20 -73 -48 -393 -368 l-393 -393
-48 27 -48 27 441 441 c345 345 441 446 441 466 0 20 -86 -61 -459 -434 -271
-271 -463 -456 -470 -452 -6 4 -11 33 -11 64 l0 57 470 470 c369 369 470 475
470 495 0 20 -87 -62 -470 -445 l-470 -470 0 75 0 75 470 470 c369 369 470
475 470 495 0 20 -87 -62 -470 -445 l-470 -470 0 75 0 75 470 470 c369 369
470 475 470 495 0 20 -87 -62 -470 -445 l-470 -470 0 75 0 75 470 470 c369
369 470 475 470 495 0 20 -87 -62 -470 -445 l-470 -470 0 75 0 75 470 470
c369 369 470 475 470 495 0 20 -87 -62 -470 -445 l-470 -470 0 75 0 75 470
470 c369 369 470 475 470 495 0 20 -87 -62 -470 -445 l-470 -470 0 75 0 75
470 470 c369 369 470 475 470 495 0 20 -87 -62 -470 -445 -320 -320 -470 -464
-470 -450 0 13 98 118 276 295 152 151 282 289 290 307 8 18 14 49 14 70 0 36
10 48 180 218 137 137 180 186 180 205 0 21 -31 -6 -188 -163 l-188 -187 -37
38 -37 38 225 224 c173 173 225 231 225 250 0 21 -41 -16 -238 -213 l-237
-237 -38 37 -37 38 227 227 c189 189 224 228 203 228 -19 0 -75 -50 -240 -215
l-214 -215 -38 37 -38 37 177 178 c149 149 174 178 153 178 -19 0 -65 -40
-190 -165 l-165 -166 -45 6 c-25 3 -61 1 -80 -5 -30 -9 -12 13 135 160 142
143 166 170 145 170 -19 0 -71 -46 -220 -195 l-195 -195 -6 67 -7 68 126 128
c108 109 123 127 102 127 -19 0 -54 -28 -135 -110 l-109 -110 -38 37 -38 37
72 73 c64 64 70 73 48 73 -17 0 -46 -21 -90 -63 l-65 -63 -69 4 -69 4 59 59
c53 54 56 59 33 59 -17 0 -43 -18 -84 -60 l-59 -60 -75 0 -75 0 59 60 c54 55
57 60 34 60 -17 0 -43 -18 -84 -60 l-59 -60 -75 0 -75 0 59 60 c54 55 57 60
34 60 -17 0 -43 -18 -84 -60 l-59 -60 -75 0 -75 0 59 60 c54 55 57 60 34 60
-17 0 -43 -18 -84 -60 l-59 -60 -75 0 -75 0 59 60 c54 55 57 60 34 60 -17 0
-43 -18 -84 -60 l-59 -60 -75 0 -75 0 59 60 c54 55 57 60 34 60 -17 0 -43 -18
-84 -60 l-59 -60 -75 0 -75 0 59 60 c54 55 57 60 34 60 -17 0 -43 -18 -84 -60
l-59 -60 -75 0 -75 0 59 60 c54 55 57 60 34 60 -17 0 -43 -18 -84 -60 l-59
-60 -75 0 -75 0 59 60 c54 55 57 60 34 60 -17 0 -43 -18 -84 -60 l-59 -60 -75
0 -75 0 59 60 c54 55 57 60 34 60 -17 0 -43 -18 -84 -60 l-59 -60 -75 0 -75 0
59 60 c54 55 57 60 34 60 -17 0 -43 -18 -84 -60 l-59 -60 -75 0 -75 0 59 60
c54 55 57 60 34 60 -17 0 -43 -18 -84 -60 l-59 -60 -75 0 -75 0 59 60 c54 55
57 60 34 60 -17 0 -43 -18 -84 -60 l-59 -60 -75 0 -75 0 59 60 c54 55 57 60
34 60 -17 0 -43 -18 -84 -60 l-59 -60 -75 0 -75 0 59 60 c54 55 57 60 34 60
-17 0 -43 -18 -84 -60 l-59 -60 -75 0 -75 0 59 60 c54 55 57 60 34 60 -17 0
-43 -18 -84 -60 l-59 -60 -75 0 -75 0 59 60 c54 55 57 60 34 60 -17 0 -43 -18
-84 -60 l-59 -60 -75 0 -75 0 59 60 c54 54 57 60 35 60 -17 0 -51 -24 -105
-75z m3529 -140 c18 -9 42 -33 54 -54 19 -33 22 -54 22 -152 l0 -114 -815
-815 -815 -815 -41 -231 c-25 -138 -39 -242 -35 -258 12 -47 34 -47 286 0
l234 43 593 593 593 593 0 -656 0 -655 -72 18 c-247 63 -486 39 -713 -72 -274
-133 -470 -368 -551 -662 -35 -127 -44 -325 -20 -452 110 -581 670 -955 1241
-829 39 8 80 18 93 20 21 5 22 2 22 -47 0 -35 -7 -65 -22 -91 -42 -75 114 -69
-1846 -67 l-1760 3 -27 25 c-59 54 -55 -102 -55 2329 0 1562 3 2248 11 2268
13 34 47 72 74 83 11 5 807 9 1768 9 1553 1 1753 -1 1781 -14z m513 -327 c173
-173 173 -164 28 -308 l-105 -105 -167 168 -168 167 105 105 c144 144 134 145
307 -27z m-300 -300 c90 -90 163 -167 163 -172 0 -14 -72 -86 -85 -86 -5 0
-84 74 -175 165 l-164 165 44 45 c24 25 47 45 49 45 3 0 79 -73 168 -162z
m-147 -153 l165 -165 -691 -691 -691 -691 -99 -18 -99 -19 -82 82 c-93 91 -92
87 -68 212 l15 80 688 688 c378 378 689 687 692 687 3 0 79 -74 170 -165z
m-85 -1795 c270 -71 504 -263 625 -514 127 -262 126 -583 -3 -841 -122 -245
-330 -418 -602 -501 -83 -26 -103 -28 -260 -28 -156 0 -177 2 -258 27 -352
108 -593 362 -679 714 -31 131 -29 313 6 448 95 365 387 638 761 711 101 19
307 12 410 -16z"/>
<path d="M1157 4609 c-105 -25 -204 -104 -253 -205 -26 -53 -29 -69 -29 -159
0 -90 3 -106 29 -160 17 -33 51 -81 78 -107 l48 -46 -34 -21 c-81 -51 -156
-159 -180 -261 -19 -79 -21 -241 -4 -258 9 -9 118 -12 429 -12 358 0 418 2
429 15 9 11 11 49 8 137 -3 113 -6 129 -36 192 -37 78 -75 125 -142 176 l-47
36 42 36 c84 74 129 205 113 330 -27 208 -244 356 -451 307z m225 -102 c209
-122 208 -402 0 -525 -42 -24 -57 -27 -137 -27 -76 0 -98 4 -138 25 -173 88
-216 316 -87 464 62 70 130 97 236 93 66 -3 89 -8 126 -30z m-167 -634 c33 -3
79 0 102 5 33 8 49 6 82 -8 60 -27 129 -97 164 -165 26 -51 31 -74 35 -152 l4
-93 -362 0 -363 0 6 83 c7 113 36 185 100 250 56 57 132 101 157 91 8 -3 42
-8 75 -11z"/>
<path d="M4585 530 c-431 -431 -525 -530 -505 -530 37 0 1043 1007 1038 1039
-2 17 -103 -78 -533 -509z"/>
<path d="M4685 430 c-351 -351 -425 -430 -405 -430 37 0 843 807 838 839 -2
17 -83 -59 -433 -409z"/>
<path d="M4785 330 c-271 -271 -325 -330 -305 -330 37 0 643 607 638 639 -2
17 -63 -39 -333 -309z"/>
<path d="M4885 230 c-191 -191 -226 -230 -205 -230 37 0 443 407 438 439 -2
18 -44 -19 -233 -209z"/>
</g>
</svg>
